<svg xmlns="http://www.w3.org/2000/svg" id="Layer_1" x="0" y="0" version="1.1" viewBox="0 0 195.79 200" xml:space="preserve"><style>.st0{fill:#ed1c24}</style><path d="M97.89 6.19h.01zM9.43 131.27h176.93H9.43z" class="st0"/><path fill="#f6d926" d="M97.89 193.81c40.84 0 75.58-26.11 88.46-62.54H9.43c12.88 36.43 47.62 62.54 88.46 62.54z"/><path fill="#e02127" d="M186.36 68.73H9.43C5.97 78.51 4.09 89.03 4.09 100s1.89 21.49 5.35 31.27h176.93c3.46-9.78 5.35-20.3 5.35-31.27s-1.91-21.49-5.36-31.27z"/><path fill="#010101" d="M9.43 68.73h176.93C173.48 32.3 138.74 6.19 97.9 6.19h-.01c-40.84 0-75.58 26.11-88.46 62.54z"/></svg>