<svg xmlns="http://www.w3.org/2000/svg" viewBox="0 0 496.158 496.158" xml:space="preserve"><path d="M248.082.003C111.07.003 0 111.063 0 248.085c0 137.001 111.07 248.07 248.082 248.07 137.006 0 248.076-111.069 248.076-248.07C496.158 111.062 385.088.003 248.082.003z" fill="#334d5c"/><path d="M322.377 80.781c10.1 22.706 15.721 47.844 15.721 74.298 0 101.079-81.94 183.019-183.019 183.019-26.454 0-51.591-5.622-74.298-15.721 28.49 64.053 92.674 108.721 167.298 108.721 101.078 0 183.019-81.94 183.019-183.019 0-74.625-44.668-138.809-108.721-167.298z" fill="#f2c900"/><g fill="#dbbb00"><path d="M155.079 338.098c-26.454 0-51.591-5.622-74.298-15.721 28.49 64.053 92.674 108.721 167.298 108.721 101.078 0 183.019-81.94 183.019-183.019 0 0-174.941 90.019-276.019 90.019zM236.634 188.671l-26.942-.95-8.464-24.773-8.463 24.773-26.942.95 21.71 15.149-8.186 26.473 21.881-16.523 21.881 16.523-8.185-26.473z"/></g><path fill="#f2c900" d="m209.824 194.758 4.641-17.608-14.666 10.791-15.918-9.834 6.338 17.264-14.88 12.119 18.984-.712 6.321 17.915 5.797-18.294 18.385-.458z"/><path fill="#dbbb00" d="m101.521 229.699-19.387-.684-6.091-17.828-6.091 17.828-19.388.684L66.187 240.6l-5.891 19.051 15.747-11.89 15.746 11.89-5.891-19.051z"/><path fill="#f2c900" d="m82.228 234.079 3.34-12.671-10.554 7.766-11.456-7.078 4.562 12.424-10.708 8.721 13.662-.512 4.549 12.892 4.172-13.165 13.229-.329z"/><path fill="#dbbb00" d="m278.639 68.596-23.271-.821-7.31-21.398-7.311 21.398-23.271.821 18.752 13.086-7.072 22.866 18.902-14.272 18.9 14.272-7.071-22.866z"/><path fill="#f2c900" d="m255.482 73.853 4.009-15.209-12.669 9.322-13.75-8.495 5.477 14.911-12.855 10.468 16.399-.614 5.461 15.474 5.007-15.801 15.879-.396z"/></svg>