<svg width="128" height="128" style="enable-background:new 0 0 128 128" xmlns="http://www.w3.org/2000/svg" xmlns:xlink="http://www.w3.org/1999/xlink"><path d="M108.82 124H21.97c-3.31 0-6-2.69-6-6V26.05c0-3.31 2.69-6 6-6h86.85V124z" style="fill:#424242"/><linearGradient id="a" gradientUnits="userSpaceOnUse" x1="64" x2="64" y1="4.2679" y2="111.72"><stop offset=".0079465" style="stop-color:#66bb6a"/><stop offset="1" style="stop-color:#2e7d32"/></linearGradient><path d="M112.03 111.14H21.97c-3.31 0-6-2.69-6-6V10c0-3.31 2.69-6 6-6h90.05v107.14z" style="fill:url(#a)"/><g style="opacity:.2"><path d="M109.03 7v101.14h-.2c-1.66 0-3 1.34-3 3V121H22.4c-1.89 0-3.43-1.54-3.43-3.43V10.43C18.97 8.54 20.51 7 22.4 7h86.63m3-3H22.4c-3.55 0-6.43 2.88-6.43 6.43v107.14c0 3.55 2.88 6.43 6.43 6.43h86.42v-12.86h3.2V4h.01z" style="fill:#424242"/></g><path d="M89.06 21.34H42.87c-1.03 0-1.71.7-1.71 1.75v26.3c0 1.05.68 1.75 1.71 1.75h46.18c1.03 0 1.71-.7 1.71-1.75v-26.3c.01-1.05-.68-1.75-1.7-1.75zm-1.72 26.3H44.58V24.85h42.76v22.79z" style="fill:#388e3c"/><path d="M58.27 35.37h15.39c1.03 0 1.71-.7 1.71-1.75s-.68-1.75-1.71-1.75H58.27c-1.03 0-1.71.7-1.71 1.75 0 1.04.68 1.75 1.71 1.75zM53.14 42.38H78.8c1.03 0 1.71-.7 1.71-1.75s-.68-1.75-1.71-1.75H53.14c-1.03 0-1.71.7-1.71 1.75s.68 1.75 1.71 1.75z" style="fill:#388e3c"/><linearGradient id="b" gradientUnits="userSpaceOnUse" x1="19.0956" x2="104.5358" y1="115.9643" y2="115.9643"><stop offset=".0102" style="stop-color:#bdbdbd"/><stop offset=".9869" style="stop-color:#f5f5f5"/></linearGradient><path d="M104.54 120.79H23.6c-2.47 0-4.5-2.02-4.5-4.5v-.64c0-2.47 2.02-4.5 4.5-4.5h80.94v9.64z" style="fill:url(#b)"/><g><defs><path id="c" d="M112.03 111.14H21.97c-3.31 0-6-2.69-6-6V10c0-3.31 2.69-6 6-6h90.05v107.14z"/></defs><clipPath id="d"><use style="overflow:visible" xlink:href="#c"/></clipPath><path style="clip-path:url(#d);fill:#424242" d="M10.25-.29h12.86v128.57H10.25z"/></g></svg>
